<?xml version="1.0" encoding="UTF-8" standalone="no"?>
<svg
   xmlns:dc="http://purl.org/dc/elements/1.1/"
   xmlns:cc="http://creativecommons.org/ns#"
   xmlns:rdf="http://www.w3.org/1999/02/22-rdf-syntax-ns#"
   xmlns:svg="http://www.w3.org/2000/svg"
   xmlns="http://www.w3.org/2000/svg"
   xmlns:sodipodi="http://sodipodi.sourceforge.net/DTD/sodipodi-0.dtd"
   xmlns:inkscape="http://www.inkscape.org/namespaces/inkscape"
   width="6.5in"
   height="6in"
   viewBox="0 0 165.1 152.4"
   version="1.1"
   id="svg8"
   inkscape:version="1.0 (4035a4fb49, 2020-05-01)"
   sodipodi:docname="wavey.svg"
   inkscape:export-filename="C:\Users\user\Desktop\Project\sudoshreyansh.github.io\icon\wavey.png"
   inkscape:export-xdpi="17.867655"
   inkscape:export-ydpi="17.867655">
  <defs
     id="defs2" />
  <sodipodi:namedview
     id="base"
     pagecolor="#ffffff"
     bordercolor="#666666"
     borderopacity="1.0"
     inkscape:pageopacity="0.0"
     inkscape:pageshadow="2"
     inkscape:zoom="0.175"
     inkscape:cx="-47.066887"
     inkscape:cy="466.3055"
     inkscape:document-units="mm"
     inkscape:current-layer="layer1"
     inkscape:document-rotation="0"
     showgrid="false"
     inkscape:snap-others="true"
     inkscape:snap-nodes="true"
     inkscape:snap-global="false"
     inkscape:snap-bbox="false"
     inkscape:window-width="1366"
     inkscape:window-height="705"
     inkscape:window-x="-8"
     inkscape:window-y="-8"
     inkscape:window-maximized="1"
     units="in"
     width="7.5in" />
  <metadata
     id="metadata5">
    <rdf:RDF>
      <cc:Work
         rdf:about="">
        <dc:format>image/svg+xml</dc:format>
        <dc:type
           rdf:resource="http://purl.org/dc/dcmitype/StillImage" />
        <dc:title />
      </cc:Work>
    </rdf:RDF>
  </metadata>
  <g
     inkscape:label="Layer 1"
     inkscape:groupmode="layer"
     id="layer1"
     style="display:inline">
    <path
       style="fill:none;stroke:#000000;stroke-width:5.536;stroke-linecap:butt;stroke-linejoin:miter;stroke-miterlimit:4;stroke-dasharray:none;stroke-opacity:1"
       d="M 122.96655,90.190808 83.571748,128.19735 c -14.74971,14.22994 -39.470547,12.46883 -48.904007,5.20582 -2.70037,-2.07908 -4.7373,-3.64027 -6.31124,-5.18337 -9.2439,-9.06276 -12.08094,-20.03029 -10.13813,-30.82015 l 7.67799,-42.641612 c 1.89289,-10.5126 16.16914,-11.13728 13.87261,2.22171 l -3.97201,28.56013 52.460593,-50.91284 c 8.635895,-8.381112 24.044866,-1.937231 12.142956,9.57267 l -34.549832,33.41184 38.787462,-37.12467 c 13.13905,-12.575789 26.51733,0.58691 11.73018,13.12296 -18.670374,15.82814 -38.054314,35.7307 -38.054314,35.7307 l 29.313664,-28.18356 c 15.4754,-14.8788 26.18851,-1.86548 14.81213,9.06065 L 90.044192,101.33112 113.57336,78.515948 c 9.52823,-9.23909 20.92124,0.55304 9.39319,11.67486 z"
       id="path26"
       sodipodi:nodetypes="ssssssscsscsscsscss" />
    <path
       style="fill:none;stroke:#000000;stroke-width:5.536;stroke-linecap:butt;stroke-linejoin:miter;stroke-miterlimit:4;stroke-dasharray:none;stroke-opacity:1"
       d="M 92.029911,19.648618 C 70.862018,22.55269 65.021591,33.893604 59.507211,42.391274"
       id="path851"
       sodipodi:nodetypes="cc" />
    <path
       style="fill:none;stroke:#000000;stroke-width:5.536;stroke-linecap:butt;stroke-linejoin:miter;stroke-miterlimit:4;stroke-dasharray:none;stroke-opacity:1"
       d="M 97.632227,6.4060446 C 71.264629,8.2601997 54.651002,20.655121 45.731072,41.364365"
       id="path853"
       sodipodi:nodetypes="cc" />
    <path
       sodipodi:nodetypes="cc"
       id="path851-2"
       d="m 116.31525,112.33142 c 19.73808,-8.18053 22.50949,-20.632294 25.68702,-30.251124"
       style="display:inline;fill:none;stroke:#000000;stroke-width:5.536;stroke-linecap:butt;stroke-linejoin:miter;stroke-miterlimit:4;stroke-dasharray:none;stroke-opacity:1" />
    <path
       sodipodi:nodetypes="cc"
       id="path853-6"
       d="m 114.46107,126.24836 c 25.03401,-8.48445 37.95854,-24.6895 41.33136,-46.984374"
       style="display:inline;fill:none;stroke:#000000;stroke-width:5.536;stroke-linecap:butt;stroke-linejoin:miter;stroke-miterlimit:4;stroke-dasharray:none;stroke-opacity:1" />
  </g>
</svg>
